<svg preserveAspectRatio="none" overflow="visible" style="display: block;" width="30" height="30" viewBox="0 0 30 30" fill="none" xmlns="http://www.w3.org/2000/svg">
<g id="flat-color-icons:google">
<path id="Vector" d="M27.2567 12.5517H26.2498V12.4998H14.9998V17.4998H22.0642C21.0336 20.4105 18.2642 22.4998 14.9998 22.4998C10.858 22.4998 7.49983 19.1417 7.49983 14.9998C7.49983 10.858 10.858 7.49983 14.9998 7.49983C16.9117 7.49983 18.6511 8.22108 19.9755 9.3992L23.5111 5.86358C21.2786 3.78295 18.2923 2.49983 14.9998 2.49983C8.0967 2.49983 2.49983 8.0967 2.49983 14.9998C2.49983 21.903 8.0967 27.4998 14.9998 27.4998C21.903 27.4998 27.4998 21.903 27.4998 14.9998C27.4998 14.1617 27.4136 13.3436 27.2567 12.5517Z" fill="#FFC107"/>
<path id="Vector_2" d="M3.9416 9.1817L8.04847 12.1936C9.15972 9.44233 11.851 7.49983 15.0003 7.49983C16.9122 7.49983 18.6516 8.22108 19.976 9.3992L23.5116 5.86358C21.2791 3.78295 18.2928 2.49983 15.0003 2.49983C10.1991 2.49983 6.03535 5.21045 3.9416 9.1817Z" fill="#FF3D00"/>
<path id="Vector_3" d="M15 27.5C18.2287 27.5 21.1625 26.2644 23.3806 24.255L19.5118 20.9813C18.2149 21.9682 16.6297 22.5018 15 22.5C11.7487 22.5 8.98808 20.4269 7.94808 17.5338L3.87183 20.6744C5.94058 24.7225 10.1418 27.5 15 27.5Z" fill="#4CAF50"/>
<path id="Vector_4" d="M27.2569 12.552H26.25V12.5002H15V17.5002H22.0644C21.5714 18.8854 20.6834 20.0959 19.51 20.982L19.5119 20.9808L23.3806 24.2545C23.1069 24.5033 27.5 21.2502 27.5 15.0002C27.5 14.162 27.4138 13.3439 27.2569 12.552Z" fill="#1976D2"/>
</g>
</svg>
